<?xml version="1.0" encoding="UTF-8"?>
<svg id="Layer_2" xmlns="http://www.w3.org/2000/svg" version="1.1" viewBox="0 0 660.7 152.5">
  <!-- Generator: Adobe Illustrator 29.1.0, SVG Export Plug-In . SVG Version: 2.1.0 Build 142)  -->
  <defs>
    <style>
      .st0 {
        fill: #651d32;
      }
    </style>
  </defs>
  <g id="Layer_1-2">
    <g>
      <path class="st0" d="M0,152.5h0c28.1,0,50.8-22.8,50.8-50.8H0c28.1,0,50.8-22.8,50.8-50.8H0v101.6Z"/>
      <path class="st0" d="M0,50.8c28.1,0,50.8-22.8,50.8-50.8H0v50.8Z"/>
      <path class="st0" d="M432,0h-50.8c-28.1,0-50.8,22.8-50.8,50.8V0h-50.8c-28.1,0-50.8,22.8-50.8,50.8V0h-50.8c-28.1,0-50.8,22.8-50.8,50.8V0h-50.8v50.8h50.8v101.7h50.8V50.8h50.8v101.7h50.8V50.8h50.8v50.8c0,28.1,22.8,50.8,50.8,50.8h50.8c28.1,0,50.8-22.8,50.8-50.8v-50.8C482.8,22.7,460.1,0,432,0h0ZM432,101.7h-50.8v-50.8h50.8v50.8Z"/>
    </g>
  </g>
</svg>