<?xml version="1.0" encoding="UTF-8"?>
<svg id="Layer_2" data-name="Layer 2" xmlns="http://www.w3.org/2000/svg" xmlns:xlink="http://www.w3.org/1999/xlink" viewBox="0 0 134.65 92.13">
  <defs>
    <style>
      .cls-1 {
        fill: none;
      }

      .cls-2 {
        fill: transparent;
      }

      .cls-3 {
        fill: #651d32;
        font-family: N27-Medium, N27;
        font-size: 9px;
        font-weight: 500;
      }

      .cls-4 {
        clip-path: url(#clippath);
      }
    </style>
    <clipPath id="clippath">
      <rect class="cls-1" width="134.65" height="92.13"/>
    </clipPath>
  </defs>
  <g id="Layer_1-2" data-name="Layer 1">
    <g class="cls-4">
      <g>
        <rect class="cls-2" y="-92.13" width="269.29" height="184.25"/>
        <text class="cls-3" transform="translate(98.44 56.42) rotate(-180)"><tspan x="0" y="0"> </tspan></text>
        <text class="cls-3" transform="translate(96.42 56.42) rotate(-180)"><tspan x="0" y="0"> </tspan></text>
        <text class="cls-3" transform="translate(94.39 56.42) rotate(-180)"><tspan x="0" y="0"> </tspan></text>
        <text class="cls-3" transform="translate(92.37 56.42) rotate(-180)"><tspan x="0" y="0"> </tspan></text>
        <text class="cls-3" transform="translate(90.34 56.42) rotate(-180)"><tspan x="0" y="0"> </tspan></text>
        <text class="cls-3" transform="translate(88.32 56.42) rotate(-180)"><tspan x="0" y="0"> </tspan></text>
        <text class="cls-3" transform="translate(86.29 56.42) rotate(-180)"><tspan x="0" y="0"> </tspan></text>
        <text class="cls-3" transform="translate(84.27 56.42) rotate(-180)"><tspan x="0" y="0"> </tspan></text>
        <text class="cls-3" transform="translate(82.24 56.42) rotate(-180)"><tspan x="0" y="0"> </tspan></text>
        <text class="cls-3" transform="translate(80.22 56.42) rotate(-180)"><tspan x="0" y="0"> </tspan></text>
        <text class="cls-3" transform="translate(78.19 56.42) rotate(-180)"><tspan x="0" y="0"> </tspan></text>
        <text class="cls-3" transform="translate(76.17 56.42) rotate(-180)"><tspan x="0" y="0"> </tspan></text>
        <text class="cls-3" transform="translate(74.14 56.42) rotate(-180)"><tspan x="0" y="0"> </tspan></text>
        <text class="cls-3" transform="translate(72.12 56.42) rotate(-180)"><tspan x="0" y="0"> </tspan></text>
        <text class="cls-3" transform="translate(70.09 56.42) rotate(-180)"><tspan x="0" y="0"> </tspan></text>
        <text class="cls-3" transform="translate(68.07 56.42) rotate(-180)"><tspan x="0" y="0"> </tspan></text>
        <text class="cls-3" transform="translate(66.04 56.42) rotate(-180)"><tspan x="0" y="0"> </tspan></text>
        <text class="cls-3" transform="translate(64.02 56.42) rotate(-180)"><tspan x="0" y="0"> </tspan></text>
        <text class="cls-3" transform="translate(61.99 56.42) rotate(-180)"><tspan x="0" y="0"> </tspan></text>
        <text class="cls-3" transform="translate(59.97 56.42) rotate(-180)"><tspan x="0" y="0"> </tspan></text>
        <text class="cls-3" transform="translate(57.94 56.42) rotate(-180)"><tspan x="0" y="0"> </tspan></text>
        <text class="cls-3" transform="translate(55.92 56.42) rotate(-180)"><tspan x="0" y="0"> </tspan></text>
        <text class="cls-3" transform="translate(53.89 56.42) rotate(-180)"><tspan x="0" y="0"> </tspan></text>
        <text class="cls-3" transform="translate(51.87 56.42) rotate(-180)"><tspan x="0" y="0">+</tspan></text>
        <text class="cls-3" transform="translate(47.58 56.42) rotate(-180)"><tspan x="0" y="0">4</tspan></text>
        <text class="cls-3" transform="translate(42.11 56.42) rotate(-180)"><tspan x="0" y="0">6</tspan></text>
        <text class="cls-3" transform="translate(36.7 56.42) rotate(-180)"><tspan x="0" y="0"> </tspan></text>
        <text class="cls-3" transform="translate(34.66 56.43) rotate(-90)"><tspan x="0" y="0">7</tspan></text>
        <text class="cls-3" transform="translate(34.67 51.74) rotate(-90)"><tspan x="0" y="0">3</tspan></text>
        <text class="cls-3" transform="translate(34.67 46.32) rotate(-90)"><tspan x="0" y="0"> </tspan></text>
        <text class="cls-3" transform="translate(34.67 44.29) rotate(-90)"><tspan x="0" y="0">5</tspan></text>
        <text class="cls-3" transform="translate(34.67 39.04) rotate(-90)"><tspan x="0" y="0">0</tspan></text>
        <text class="cls-3" transform="translate(34.66 33.6) rotate(-90)"><tspan x="0" y="0">9</tspan></text>
        <text class="cls-3" transform="translate(34.67 28.19) rotate(-90)"><tspan x="0" y="0"> </tspan></text>
        <text class="cls-3" transform="translate(34.67 26.17) rotate(-90)"><tspan x="0" y="0">7</tspan></text>
        <text class="cls-3" transform="translate(34.66 21.48) rotate(-90)"><tspan x="0" y="0">1</tspan></text>
        <text class="cls-3" transform="translate(34.66 17.64) rotate(-90)"><tspan x="0" y="0">2</tspan></text>
        <text class="cls-3" transform="translate(34.66 12.43) rotate(-90)"><tspan x="0" y="0">6</tspan></text>
        <text class="cls-3" transform="translate(142 57.34) rotate(-180)"><tspan x="0" y="0">M</tspan></text>
      </g>
    </g>
  </g>
</svg>