<?xml version="1.0" encoding="UTF-8"?>
<svg id="Layer_2" data-name="Layer 2" xmlns="http://www.w3.org/2000/svg" xmlns:xlink="http://www.w3.org/1999/xlink" viewBox="0 0 134.65 92.13">
  <defs>
    <style>
      .cls-1 {
        fill: none;
      }

      .cls-2 {
        fill: transparent;
      }

      .cls-3 {
        font-size: 9px;
      }

      .cls-3, .cls-4, .cls-5, .cls-6, .cls-7, .cls-8, .cls-9, .cls-10, .cls-11, .cls-12, .cls-13, .cls-14, .cls-15, .cls-16 {
        fill: #651d32;
        font-family: N27-Medium, N27;
        font-weight: 500;
      }

      .cls-4 {
        font-size: 9px;
      }

      .cls-5 {
        font-size: 9px;
      }

      .cls-6 {
        font-size: 9px;
      }

      .cls-7 {
        font-size: 9px;
      }

      .cls-8 {
        font-size: 9px;
      }

      .cls-9 {
        font-size: 9px;
      }

      .cls-10 {
        font-size: 9px;
      }

      .cls-11 {
        font-size: 9px;
      }

      .cls-12 {
        font-size: 9px;
      }

      .cls-13 {
        font-size: 9px;
      }

      .cls-14 {
        font-size: 9px;
      }

      .cls-15 {
        font-size: 9px;
      }

      .cls-16 {
        font-size: 9px;
      }

      .cls-17 {
        clip-path: url(#clippath);
      }
    </style>
    <clipPath id="clippath">
      <rect class="cls-1" width="134.65" height="92.13"/>
    </clipPath>
  </defs>
  <g id="Layer_1-2" data-name="Layer 1">
    <g class="cls-17">
      <g>
        <rect class="cls-2" x="-134.65" width="269.29" height="184.25"/>
        <text class="cls-11" transform="translate(99.3 51.72) rotate(90)"><tspan x="0" y="0"> </tspan></text>
        <text class="cls-11" transform="translate(99.31 53.75) rotate(90)"><tspan x="0" y="0"> </tspan></text>
        <text class="cls-11" transform="translate(99.3 55.77) rotate(90)"><tspan x="0" y="0"> </tspan></text>
        <text class="cls-11" transform="translate(99.3 57.8) rotate(90)"><tspan x="0" y="0"> </tspan></text>
        <text class="cls-11" transform="translate(99.3 59.82) rotate(90)"><tspan x="0" y="0"> </tspan></text>
        <text class="cls-11" transform="translate(99.3 61.85) rotate(90)"><tspan x="0" y="0"> </tspan></text>
        <text class="cls-11" transform="translate(99.3 63.87) rotate(90)"><tspan x="0" y="0"> </tspan></text>
        <text class="cls-11" transform="translate(99.31 65.9) rotate(90)"><tspan x="0" y="0"> </tspan></text>
        <text class="cls-11" transform="translate(99.3 67.92) rotate(90)"><tspan x="0" y="0"> </tspan></text>
        <text class="cls-11" transform="translate(99.3 69.95) rotate(90)"><tspan x="0" y="0"> </tspan></text>
        <text class="cls-11" transform="translate(99.3 71.97) rotate(90)"><tspan x="0" y="0"> </tspan></text>
        <text class="cls-11" transform="translate(99.3 74) rotate(90)"><tspan x="0" y="0"> </tspan></text>
        <text class="cls-11" transform="translate(99.31 76.02) rotate(90)"><tspan x="0" y="0"> </tspan></text>
        <text class="cls-11" transform="translate(99.3 78.05) rotate(90)"><tspan x="0" y="0"> </tspan></text>
        <text class="cls-11" transform="translate(99.3 80.07) rotate(90)"><tspan x="0" y="0"> </tspan></text>
        <text class="cls-11" transform="translate(99.3 82.1) rotate(90)"><tspan x="0" y="0"> </tspan></text>
        <text class="cls-11" transform="translate(99.3 84.12) rotate(90)"><tspan x="0" y="0"> </tspan></text>
        <text class="cls-11" transform="translate(99.3 86.15) rotate(90)"><tspan x="0" y="0"> </tspan></text>
        <text class="cls-11" transform="translate(99.31 88.17) rotate(90)"><tspan x="0" y="0"> </tspan></text>
        <text class="cls-11" transform="translate(99.3 90.2) rotate(90)"><tspan x="0" y="0"> </tspan></text>
        <text class="cls-3" transform="translate(28.5 57.1) rotate(-59.41)"><tspan x="0" y="0">N</tspan></text>
        <text class="cls-12" transform="translate(31.86 51.46) rotate(-51.15)"><tspan x="0" y="0">I</tspan></text>
        <text class="cls-8" transform="translate(34.76 47.75) rotate(-42.95)"><tspan x="0" y="0">C</tspan></text>
        <text class="cls-13" transform="translate(39.15 43.59) rotate(-33.35)"><tspan x="0" y="0">H</tspan></text>
        <text class="cls-9" transform="translate(44.55 40.08) rotate(-25.03)"><tspan x="0" y="0">E</tspan></text>
        <text class="cls-16" transform="translate(49.38 37.86) rotate(-16.57)"><tspan x="0" y="0">T</tspan></text>
        <text class="cls-7" transform="translate(54.33 36.42) rotate(-9.41)"><tspan x="0" y="0">T</tspan></text>
        <text class="cls-10" transform="translate(59.29 35.62) rotate(-.73)"><tspan x="0" y="0">O</tspan></text>
        <text class="cls-5" transform="translate(65.34 35.61) rotate(7.97)"><tspan x="0" y="0">S</tspan></text>
        <text class="cls-16" transform="translate(70.8 36.42) rotate(16.57)"><tspan x="0" y="0">T</tspan></text>
        <text class="cls-9" transform="translate(75.74 37.88) rotate(25.03)"><tspan x="0" y="0">U</tspan></text>
        <text class="cls-15" transform="translate(81.39 40.58) rotate(34.73)"><tspan x="0" y="0">D</tspan></text>
        <text class="cls-8" transform="translate(86.29 44.06) rotate(42.95)"><tspan x="0" y="0">I</tspan></text>
        <text class="cls-12" transform="translate(89.76 47.25) rotate(51.15)"><tspan x="0" y="0">O</tspan></text>
        <text class="cls-6" transform="translate(93.3 51.82) rotate(56.65)"><tspan x="0" y="0">.</tspan></text>
        <text class="cls-14" transform="translate(94.56 53.55) rotate(63.58)"><tspan x="0" y="0">C</tspan></text>
        <text class="cls-16" transform="translate(97.28 58.95) rotate(73.43)"><tspan x="0" y="0">O</tspan></text>
        <text class="cls-4" transform="translate(99.11 64.74) rotate(83.48)"><tspan x="0" y="0">M</tspan></text>
      </g>
    </g>
  </g>
</svg>