<?xml version="1.0" encoding="UTF-8"?>
<svg id="Layer_2" data-name="Layer 2" xmlns="http://www.w3.org/2000/svg" viewBox="0 0 416.87 413.33">
  <defs>
    <style>
      .cls-1 {
        fill: #FA4616;
      }
    </style>
  </defs>
  <g id="Layer_1-2" data-name="Layer 1">
    <g>
      <path class="cls-1" d="M189.49,213.08c.01-4.27,0-8.56,0-12.83h12.48v12.14l.69.69h12.25v12.37c-4.31,0-8.63-.01-12.94,0-.01-4.12,0-8.26,0-12.37-4.15,0-8.33,0-12.48,0Z"/>
      <path class="cls-1" d="M214.9,187.88c4.15,0,8.33,0,12.48,0v-49.95h12.48v12.37c4.31,0,8.63-.01,12.94,0,.02,8.39-.01,16.81,0,25.21,4.15,0,8.33-.01,12.48,0-.02,8.24,0,16.51,0,24.75h-50.38c0-4.12.01-8.26,0-12.37Z"/>
      <path class="cls-1" d="M177.01,125.1c-.01,8.39,0,16.81,0,25.21-4.31,0-8.64-.01-12.94,0,.02-8.39-.02-16.81,0-25.21,4.31,0,8.64.01,12.94,0Z"/>
      <path class="cls-1" d="M353.55,375.76c8.47.03,16.96-.02,25.42,0,.01,8.39-.03,16.81,0,25.21-4.15,0-8.33-.01-12.48,0,0,4.12,0,8.25,0,12.37h-12.94v-12.37c4.31,0,8.63.01,12.94,0,0-3.41.4-8.04.02-11.25-.08-.67-.06-1.18-.72-1.58h-12.25c-.62,0,0-11.27,0-12.37Z"/>
      <path class="cls-1" d="M341.07,150.3c.04-12.52-.03-25.06,0-37.58h25.42v-12.37h24.96v24.74h25.42v25.2h-12.48v-12.37h-12.94v12.37h-12.48v-12.37h-12.48c-.05,8.24.06,16.51,0,24.74-4.31-.02-8.63.01-12.94,0v-12.37h-12.48ZM354.25,125.1l-.69.69v11.46l.69.69h11.55l.69-.69v-11.46l-.69-.69h-11.55Z"/>
      <path class="cls-1" d="M164.07,150.3c-.01,4.12.01,8.26,0,12.37-4.15,0-8.33.01-12.48,0-.01-4.12.01-8.26,0-12.37,4.15-.01,8.33.01,12.48,0Z"/>
      <path class="cls-1" d="M12.48,125.1c-.03,8.39.02,16.81,0,25.2h12.25l.69-.69v-11.69h11.79l.69-.69v-36.89h12.48v12.37c8.47-.02,16.95.03,25.42,0v-12.37h12.48v12.37c-4.15,0-8.33-.01-12.48,0,0,1.1-.62,12.37,0,12.37h12.48v12.83h-37.9c0,4.12.01,8.26,0,12.37-8.31-.02-16.65.02-24.96,0v12.37h12.48c0,4.27-.01,8.56,0,12.83h-12.48v-12.14l-.69-.69h-11.55l-.69.69v12.14H0v-50.41c4.15-.01,8.33.02,12.48,0,.01-4.12,0-8.26,0-12.37h12.94v12.37c-4.31.01-8.63-.02-12.94,0Z"/>
      <path class="cls-1" d="M265.28,150.3c8.47.02,16.95-.02,25.42,0v12.37h12.48c.01,4.27-.02,8.56,0,12.83-12.62.04-25.27.04-37.9,0,.02-8.39-.03-16.81,0-25.2Z"/>
      <path class="cls-1" d="M341.07,150.3c-.01,4.12,0,8.26,0,12.37-4.15,0-8.33-.02-12.48,0,0-4.12,0-8.26,0-12.37,4.15,0,8.33,0,12.48,0Z"/>
      <path class="cls-1" d="M252.8,87.52c-.01,4.27,0,8.56,0,12.83-4.31-.02-8.64.01-12.94,0,0-4.27.02-8.56,0-12.83,4.31,0,8.63.01,12.94,0Z"/>
      <path class="cls-1" d="M227.38,87.52c-.03,8.39.02,16.81,0,25.2h12.48v12.37h-24.96c.05,20.92-.06,41.86,0,62.78-4.31.01-8.63,0-12.94,0v-62.78c-8.31.02-16.65-.02-24.96,0,0-4.12-.01-8.26,0-12.37,4.15,0,8.33,0,12.48,0,0-4.12-.01-8.26,0-12.37h12.48v12.37h12.94c-.06-8.41-.02-16.8,0-25.2,4.15.01,8.33,0,12.48,0Z"/>
      <path class="cls-1" d="M328.6,162.67c-.01,4.27,0,8.56,0,12.83h12.48v24.74h12.48v-24.74h12.25c.66-.4.64-.91.72-1.58.38-3.24-.05-7.81-.02-11.25,4.15.02,8.33-.01,12.48,0-.02,8.39.02,16.81,0,25.21-4.15.01-8.33,0-12.48,0v12.37h12.48c0-4.12-.01-8.26,0-12.37,8.47-.03,16.95.02,25.42,0v12.37h-12.25l-.69.69v12.14h-12.48v12.37h25.42v-12.37h12.48v49.95c-4.15.01-8.33-.02-12.48,0-.02-7.1.82-16.92.02-23.62-.08-.67-.06-1.18-.72-1.58h-11.55l-.69.69v12.14h-12.48v12.37c-4.15,0-8.33-.01-12.48,0-.01-7.08.82-16.93.02-23.62-.08-.67-.06-1.18-.72-1.58h-11.55c-.66.4-.64.91-.72,1.58-.85,7.21.78,16.21.02,23.63,4.31-.01,8.64,0,12.94,0,.03,12.52-.02,25.06,0,37.58,4.15.02,8.33-.03,12.48,0,.01,4.12,0,8.26,0,12.37h12.48v-12.37c-4.15-.02-8.33.03-12.48,0-.03-8.39.02-16.81,0-25.2h12.48v-12.37c4.31-.01,8.63.02,12.94,0,.01,4.12,0,8.26,0,12.37h12.48v37.58h-12.48v12.83h-12.94v12.37h12.94v37.58h12.48v25.2c-8.47.01-16.95-.02-25.42,0,.05-16.79-.04-33.61,0-50.41h-11.79l-.69.69v12.14h-25.42v12.37c-4.15-.01-8.33,0-12.48,0v-12.37h-12.48v12.37h-12.94v-12.37h-24.96v12.37c-12.62.03-25.27-.04-37.9,0,.03-8.24.15-16.57-.2-24.77l-.56-.37-37.14-.07c0,4.27.02,8.56,0,12.83-4.31-.01-8.63-.01-12.94,0-.01-4.27,0-8.56,0-12.83h-24.96v12.83h-12.94v-12.83h-12.48c-.02-4.12.03-8.26,0-12.37h12.48v-25.2c-8.31-.01-16.65.01-24.96,0-.02-8.24.02-16.5,0-24.74,4.15.01,8.33,0,12.48,0v12.37h12.48v-25.2h12.94v37.58h37.9v-12.37h-25.42v-37.58h-12.48c0-4.12.01-8.26,0-12.37,8.31-.02,16.65.02,24.96,0,0-4.27-.01-8.56,0-12.83,4.31.02,8.63-.01,12.94,0v12.83c4.15,0,8.33-.01,12.48,0-.02,8.24.02,16.5,0,24.74h12.48v-12.37c4.31,0,8.63.01,12.94,0,.03,4.12-.02,8.26,0,12.37,4.15,0,8.33-.02,12.48,0-.01,4.27,0,8.56,0,12.83h-12.48v-12.14l-.69-.69h-11.55l-.69.69v12.14h-12.48v12.37h12.48v12.37h12.94v12.83h-12.94v12.37h12.94v12.37h12.48v-12.37c8.47.02,16.95-.03,25.42,0v12.37h12.48v-12.37c-4.15,0-8.33.01-12.48,0,0-1.1-.62-12.37,0-12.37h12.48v-12.83h-12.48v-24.74h-12.94c-.01-4.27.02-8.56,0-12.83,8.46.02,16.95.03,25.42,0,0-4.12,0-8.26,0-12.37h12.48v12.37c-4.15,0-8.33-.01-12.48,0-.01,4.27,0,8.56,0,12.83h12.48v12.37h37.9v-25.2h-11.79l-.69.69v12.14h-12.48c-.03-12.52.04-25.06,0-37.58,4.15-.01,8.33,0,12.48,0v-25.2h-12.48v-12.37c-4.31,0-8.63.01-12.94,0,.03-8.39-.02-16.81,0-25.2h-12.48c-.01-4.12.02-8.26,0-12.37,4.15-.01,8.33,0,12.48,0v-12.83c4.31-.01,8.63.02,12.94,0ZM214.9,263.03h-12.94v12.37h12.94v-12.37ZM353.55,312.98l-37.7.43-.2,37.15h37.9v-37.58ZM227.38,325.81h-50.38v12.37h50.38v-12.37Z"/>
      <path class="cls-1" d="M214.9,363.38c4.15.01,8.33,0,12.48,0v24.74h12.48v-12.37c4.31,0,8.63.01,12.94,0-.01,4.12,0,8.26,0,12.37h-12.25l-.69.69v12.14h-37.9c-.02-8.39.02-16.81,0-25.2,4.31-.01,8.64,0,12.94,0,0-4.12-.02-8.26,0-12.37Z"/>
      <path class="cls-1" d="M265.28,75.15c0,4.12,0,8.26,0,12.37-4.15,0-8.33-.02-12.48,0,.01-4.12,0-8.26,0-12.37,4.15,0,8.33,0,12.48,0Z"/>
      <path class="cls-1" d="M139.11,363.38c4.15.01,8.33,0,12.48,0v24.74h25.42v-12.37c4.15,0,8.33.01,12.48,0,.01-4.12,0-8.26,0-12.37,4.15,0,8.33.02,12.48,0,.01,4.12-.01,8.26,0,12.37-4.15.01-8.33-.01-12.48,0-.04,12.52.03,25.06,0,37.58h-75.79v-25.2h12.48c.02-4.12-.03-8.26,0-12.37,4.31-.01,8.64,0,12.94,0,0-4.12-.01-8.26,0-12.37ZM151.59,400.96v-12.14l-1.59-.71c-7.01.75-15.42-.79-22.23,0-.67.08-1.19.06-1.59.71v12.14h25.42Z"/>
      <path class="cls-1" d="M290.7,225.45c-12.62.02-25.27-.02-37.9,0v-12.37l36.3.02,1.59-.71v-12.14h12.48c0,4.27-.01,8.56,0,12.83-4.15.01-8.33,0-12.48,0-.02,4.12.03,8.26,0,12.37Z"/>
      <path class="cls-1" d="M189.49,213.08c-.01,4.12-.01,8.26,0,12.37-4.15,0-8.33,0-12.48,0,.01-4.12,0-8.26,0-12.37,4.15,0,8.33,0,12.48,0Z"/>
      <path class="cls-1" d="M164.07,37.58c-8.31.06-16.65-.05-24.96,0v12.37h-37.9v-24.75s24.96,0,24.96,0v-12.83h12.94V0h12.48v25.2c4.15.01,8.33-.02,12.48,0,0,4.12.01,8.26,0,12.37Z"/>
      <path class="cls-1" d="M303.18,62.78c1.11,0,12.48-.62,12.48,0v24.74h-12.48c-.06-8.24-.02-16.51,0-24.74Z"/>
      <path class="cls-1" d="M315.66,213.08c-.01,4.12,0,8.26,0,12.37-4.15,0-8.33-.02-12.48,0-.01-4.12.01-8.26,0-12.37,4.15-.01,8.33-.01,12.48,0Z"/>
      <path class="cls-1" d="M164.07,25.2c.01-8.39-.01-16.81,0-25.2h12.94v12.37h24.96V0h12.94c-.05,8.39.07,16.81,0,25.2-4.31.01-8.63,0-12.94,0v11.69l.69.69h11.55c.46-.29.6-.63.69-1.15.5-2.71-.02-8.13,0-11.23,4.15-.01,8.33-.01,12.48,0-.04,12.52.03,25.06,0,37.58h-12.48c-.01,8.24.02,16.5,0,24.74-4.31-.01-8.63,0-12.94,0v-12.37h-12.48c-.01-4.12,0-8.26,0-12.37h-25.42v36.89l.69.69h11.55c.66-.4.64-.91.72-1.58.39-3.26-.87-22.79-.03-23.63,4.15,0,8.33,0,12.48,0,.03,8.39.03,16.81,0,25.2-4.15,0-8.33,0-12.48,0,0,4.12.02,8.26,0,12.37-4.31,0-8.63,0-12.94,0v-12.37h-12.48v24.74h-24.73l-.69.69v11.46c.41.65.92.63,1.59.71,3.29.38,22.98-.86,23.83-.03,0,4.12-.02,8.26,0,12.37-4.15.01-8.33,0-12.48,0v12.37c4.15,0,8.33-.01,12.48,0,.01,4.27,0,8.56,0,12.83h12.48c0-4.27-.01-8.56,0-12.83,8.47.01,16.95-.01,25.42,0v25.2h-25.42c.04,12.53.07,25.04,0,37.58-4.15-.01-8.33,0-12.48,0v-37.58c-8.47.02-16.95-.03-25.42,0,.03,4.12-.02,8.26,0,12.37h12.94v25.2h-12.94v-12.37h-12.48v-25.2c4.15,0,8.33.01,12.48,0-.03-4.12.02-8.26,0-12.37h-24.96v24.74c-4.31,0-8.63-.01-12.94,0,0-4.12,0-8.26,0-12.37h-37.9v12.37c12.62-.03,25.27.04,37.9,0,.01,4.27,0,8.56,0,12.83h-37.9v12.37h-12.48v62.78h24.73c.66-.4.64-.91.72-1.58.85-7.21-.77-16.21-.02-23.62h-12.94v-25.2h12.94v12.83h24.96v-12.83h-12.48v-12.37h37.9c0,4.12-.01,8.26,0,12.37-4.15.01-8.33,0-12.48,0-.01,8.39.03,16.81,0,25.21-8.47.03-16.95-.02-25.42,0v12.37h25.42c0-4.12-.01-8.26,0-12.37,4.15-.01,8.33,0,12.48,0-.02-8.39.02-16.81,0-25.21,8.47-.03,16.95.02,25.42,0v12.83h-12.94v24.74h12.94c0,4.27-.01,8.56,0,12.83-25.26-.08-50.54.06-75.8,0,0,4.12,0,8.26,0,12.37,8.31,0,16.65,0,24.96,0v12.37h-24.96v-12.37c-8.47,0-16.95,0-25.42,0v12.37H0v-49.95h25.42v-12.37H0v-37.58h12.48v12.37h12.94c-.75-7.41.88-16.41.02-23.62-.08-.67-.06-1.18-.72-1.58H0v-12.37h25.42v12.37h12.48c-.02-8.24.02-16.5,0-24.74,4.15,0,8.33,0,12.48,0,.01-8.39-.03-16.81,0-25.21,4.31.01,8.63,0,12.94,0v25.2l37.46-.2.43-25h12.48v-12.37h-12.48v-25.2h12.48c-.02-8.39.03-16.81,0-25.2h-12.48v-12.37h12.48c0,4.12-.01,8.26,0,12.37,1.11,0,12.48.62,12.48,0v-12.37c4.31,0,8.63-.01,12.94,0v12.37h12.48v-12.37c-4.15,0-8.33,0-12.48,0,0-1.1-.62-12.37,0-12.37h12.48v-12.83h12.48c0-4.12-.01-8.26,0-12.37,3.47-.03,8.08.4,11.35.02.67-.08,1.19-.06,1.59-.71v-11.69c-4.31-.01-8.63.02-12.94,0ZM25.42,300.6c-.75-7.41.88-16.41.02-23.62-.08-.67-.06-1.18-.72-1.58h-11.55l-.69.69v24.52h12.94Z"/>
      <path class="cls-1" d="M177.01,225.45c-.03,8.39-.03,16.81,0,25.2-4.31.01-8.63,0-12.94,0v12.37h-12.48v-25.2h12.48c.02-4.12-.02-8.26,0-12.37,4.31.01,8.63,0,12.94,0Z"/>
      <path class="cls-1" d="M239.86,12.37c0-4.12,0-8.25,0-12.37h50.84v25.2h12.48V0h12.48v49.95h-12.48c0,4.27.01,8.56,0,12.83h-12.48v24.74h12.48c.03,3.44-.41,8.01-.02,11.25.08.67.06,1.18.72,1.58h11.79c0,4.12,0,8.25,0,12.37-4.15,0-8.33,0-12.48,0v12.37h12.48v-12.37c4.31-.01,8.63,0,12.94,0v12.37h-12.25l-.69.69v12.14h-24.96v-12.14l-.69-.69h-11.55l-.69.69v12.14h-12.48c0,4.12.01,8.26,0,12.37-4.15-.01-8.33.01-12.48,0-.04-16.63-.03-33.3,0-49.95,4.15.02,8.33-.01,12.48,0v24.74h12.48v-12.37h12.94v-12.37h-12.94v-25.2h-12.48v-12.37h-12.48v-12.83h12.48v-24.74h-12.48v12.37h-12.94v-12.37c-4.15,0-8.33.01-12.48,0,.01-4.27,0-8.56,0-12.83,4.15,0,8.33,0,12.48,0,0,3.41-.4,8.04-.02,11.25.08.67.06,1.18.72,1.58h11.55l.69-.69v-11.46c-.41-.65-.92-.63-1.59-.71-3.24-.38-7.91.03-11.35.02ZM277.76,12.37h-12.48v12.14l.69.69h11.79v-12.83ZM290.7,37.58h-12.94c.75,7.41-.88,16.41-.02,23.62.08.67.06,1.18.72,1.58h11.55l.69-.69v-24.52Z"/>
      <path class="cls-1" d="M201.96,225.45c.01,4.12.01,8.26,0,12.37-4.15-.02-8.33.01-12.48,0,0-4.12.02-8.26,0-12.37,4.15,0,8.33.01,12.48,0Z"/>
      <path class="cls-1" d="M303.18,225.45c.01,4.12,0,8.26,0,12.37h25.42c0,4.27-.01,8.56,0,12.83-16.94.05-33.9-.04-50.84,0v-12.83h12.94c.02-4.12-.03-8.26,0-12.37,4.15,0,8.33.01,12.48,0Z"/>
      <path class="cls-1" d="M227.38,250.66c.01-4.27,0-8.56,0-12.83h37.9c0,8.39,0,16.81,0,25.2-4.15-.01-8.33-.01-12.48,0-.03-4.12.02-8.26,0-12.37-8.47-.01-16.96.03-25.42,0Z"/>
      <path class="cls-1" d="M126.17,375.76c-8.31.02-16.65-.02-24.96,0v-25.21h37.9c0,4.27.01,8.56,0,12.83-4.31-.01-8.64,0-12.94,0-.02,4.12.03,8.26,0,12.37Z"/>
      <path class="cls-1" d="M139.11,325.81c4.15.01,8.33,0,12.48,0,.02,4.12-.03,8.26,0,12.37-4.15,0-8.33,0-12.48,0,0-4.12.02-8.26,0-12.37Z"/>
      <path class="cls-1" d="M391.45,400.96c-.01,4.12,0,8.26,0,12.37h-12.48c0-4.12.01-8.26,0-12.37,4.15,0,8.33,0,12.48,0Z"/>
      <path class="cls-1" d="M265.28,263.03c4.15.01,8.33,0,12.48,0,0,4.12-.02,8.26,0,12.37-4.15,0-8.33.01-12.48,0,.01-4.12,0-8.26,0-12.37Z"/>
      <path class="cls-1" d="M139.11,312.98c0,4.27-.01,8.56,0,12.83-4.31-.01-8.63.01-12.94,0,.01-4.27.01-8.56,0-12.83,4.31-.01,8.63,0,12.94,0Z"/>
      <path class="cls-1" d="M126.17,325.81c-.01,4.12,0,8.26,0,12.37h-24.96v-37.58h24.96c0,4.12-.01,8.26,0,12.37-4.15.01-8.33,0-12.48,0v12.83c4.15,0,8.33-.01,12.48,0Z"/>
      <path class="cls-1" d="M88.27,0v87.52H0V0h88.27ZM75.79,12.37H12.48v62.78h63.32V12.37Z"/>
      <path class="cls-1" d="M416.87,0v87.52h-88.27V0h88.27ZM404.39,12.37h-63.32v62.78h63.32V12.37Z"/>
      <path class="cls-1" d="M88.27,325.81v87.52H0v-87.52h88.27ZM75.79,338.18H12.48v62.78h63.32v-62.78Z"/>
      <polygon class="cls-1" points="303.18 388.13 303.18 400.96 315.66 400.96 315.66 413.33 290.7 413.33 290.7 400.96 277.76 400.96 277.76 388.13 303.18 388.13"/>
      <rect class="cls-1" x="391.45" y="162.67" width="12.94" height="12.83"/>
      <rect class="cls-1" x="328.6" y="388.13" width="12.48" height="12.83"/>
      <rect class="cls-1" x="75.79" y="150.3" width="12.48" height="12.37"/>
      <rect class="cls-1" x="252.8" y="400.96" width="12.48" height="12.37"/>
      <rect class="cls-1" x="227.38" y="213.08" width="12.48" height="12.37"/>
      <rect class="cls-1" x="265.28" y="312.98" width="12.48" height="12.83"/>
      <rect class="cls-1" x="328.6" y="325.81" width="12.48" height="12.37"/>
      <rect class="cls-1" x="25.42" y="25.2" width="37.9" height="37.58"/>
      <rect class="cls-1" x="353.55" y="25.2" width="37.9" height="37.58"/>
      <rect class="cls-1" x="25.42" y="350.55" width="37.9" height="37.58"/>
    </g>
  </g>
</svg>