<?xml version="1.0" encoding="UTF-8"?>
<svg id="Layer_2" data-name="Layer 2" xmlns="http://www.w3.org/2000/svg" viewBox="0 0 413.71 413.33">
  <defs>
    <style>
      .cls-1 {
        fill: #FA4616;
      }
    </style>
  </defs>
  <g id="Layer_1-2" data-name="Layer 1">
    <g>
      <path class="cls-1" d="M177.53,78.6c-.01-6.51.01-13.04,0-19.55h-19.94V19.55h19.94V0h19.55v78.6c-6.51.01-13.04-.02-19.55,0,.04,19.68-.03,39.37,0,59.05h19.55v-19.55h19.55v-19.36l.58-.58h19.36c0-6.51-.01-13.04,0-19.55-6.64-.02-13.3.02-19.94,0v-19.55h19.36l.58-.58v-18.98h-19.36l-.58-.58V0h39.49v19.55h-19.55v19.55h19.55v19.94h-19.55c0,6.51.01,13.04,0,19.55,6.51.02,13.04-.01,19.55,0v78.99h-39.11v19.55h-19.94v59.05c-6.51.01-13.04-.02-19.55,0,.01,6.51-.01,13.04,0,19.55h59.05c0-6.51-.01-13.04,0-19.55,13.03.03,26.08-.02,39.11,0v-19.55h-39.11c0,6.51.01,13.04,0,19.55-6.64-.01-13.3.01-19.94,0v-19.36l.58-.58h19.36v-19.55h118.09v19.94h-39.49c0,13.03.01,26.08,0,39.11-25.75-.03-51.52.04-77.28-.02l-1.32.59v19.36h-19.55v19.55h58.66v-19.36l.58-.58h19.36v39.3l-.58.58h-18.98v19.55h39.11v19.55c-6.51.01-13.04,0-19.55,0v19.55h19.55v-19.55c6.51-.01,13.04,0,19.55,0v-39.11h-18.98l-.59-1.32c.05-19.37,0-38.74.02-58.11,13.16.01,26.34,0,39.49,0v19.94h-19.55v19.55h19.55v19.55h19.55v-19.55h19.36l.58-.58v-19.36h19.55v98.92h-19.55v19.55h-19.55v19.55h-59.43v-19.55h-19.55v-19.55h-19.55v19.55c-6.64,0-13.3,0-19.94,0v-19.55h-19.55v19.55c6.51,0,13.04,0,19.55,0v19.55h-39.49v-38.92l.58-.58h19.36v-19.55h19.55v-39.11h-19.55v19.55h-39.49v19.55h-39.49v-19.55h19.36l.58-.58v-38.92h-19.94v-59.05c6.64-.02,13.3.02,19.94,0-.03-12.72,0-25.45.02-38.17l-.59-1.32h-19.36v-19.55h-39.11v19.55h19.55v19.94h-19.55v19.55h19.55v19.55h-39.49v-19.55c-6.51-.01-13.04.01-19.55,0v-19.55h-19.55v19.55c-6.51.01-13.04-.01-19.55,0v19.55H0v-19.55h19.94v-19.94h39.49v-19.55h19.55v19.55h39.49v-18.98l-.58-.58h-19.36v-19.55h19.36l.58-.58v-19.36h39.11v-78.6c6.64-.02,13.3.02,19.94,0ZM236.57,118.09h-19.55v19.55h19.55v-19.55ZM177.53,157.59h-19.55v19.55h18.98l.58-.58v-18.98ZM374.22,334.73h-19.55v19.55h19.55v-19.55ZM394.16,373.84v-18.98l-.58-.58h-18.98v19.55h19.55ZM334.73,374.22h-19.55v18.98l.58.58h18.98v-19.55ZM374.22,374.22h-19.55v18.98l.58.58h18.98v-19.55Z"/>
      <path class="cls-1" d="M78.99,236.19v19.55h-19.55v-19.55c6.51-.01,13.04-.01,19.55,0Z"/>
      <path class="cls-1" d="M138.03,275.3v138.03H0v-137.46l.58-.58h137.46ZM118.48,295.24H19.94v97.96l.58.58h97.39l.58-.58v-97.96Z"/>
      <path class="cls-1" d="M413.71,0v137.65h-138.03V0h138.03ZM295.62,118.09h97.96l.58-.58V20.13l-.58-.58h-97.96v98.54Z"/>
      <path class="cls-1" d="M138.03,0v137.65H0V0h138.03ZM118.48,19.55H19.94v98.54h97.96l.58-.58V19.55Z"/>
      <polygon class="cls-1" points="335.11 177.14 275.68 177.14 275.68 157.78 276.26 157.2 334.54 157.2 335.11 157.78 335.11 177.14"/>
      <polygon class="cls-1" points="19.94 177.14 19.94 196.7 0 196.7 0 157.78 .58 157.2 39.3 157.2 39.88 157.78 39.88 176.57 39.3 177.14 19.94 177.14"/>
      <polygon class="cls-1" points="177.53 373.84 177.53 393.78 197.08 393.78 197.08 413.33 157.59 413.33 157.59 374.41 158.16 373.84 177.53 373.84"/>
      <path class="cls-1" d="M394.16,177.14c6.51.01,13.04-.01,19.55,0v19.55c-6.51.01-13.04-.02-19.55,0-.01,6.64.01,13.3,0,19.94h-19.94v-19.94c6.64-.02,13.3.02,19.94,0,.01-6.51.02-13.04,0-19.55-13.16-.03-26.34.02-39.49,0v-19.94h38.92c.55.34.53.76.59,1.32.62,5.28-.03,13.03-.02,18.62Z"/>
      <rect class="cls-1" x="374.22" y="236.19" width="39.49" height="19.55"/>
      <rect class="cls-1" x="59.43" y="157.2" width="19.55" height="19.94"/>
      <polygon class="cls-1" points="39.49 314.79 98.35 314.79 98.92 315.37 98.92 373.65 98.35 374.22 40.07 374.22 39.49 373.65 39.49 314.79"/>
      <polygon class="cls-1" points="315.17 98.54 315.17 39.11 374.03 39.11 374.61 39.68 374.61 97.96 374.03 98.54 315.17 98.54"/>
      <polygon class="cls-1" points="39.49 39.11 98.35 39.11 98.92 39.68 98.92 97.96 98.35 98.54 40.07 98.54 39.49 97.96 39.49 39.11"/>
    </g>
  </g>
</svg>