<?xml version="1.0" encoding="UTF-8"?>
<svg id="Layer_2" data-name="Layer 2" xmlns="http://www.w3.org/2000/svg" viewBox="0 0 1238.99 175.89">
  <defs>
    <style>
      .cls-1 {
        fill: #651d32;
      }
    </style>
  </defs>
  <g id="Layer_1-2" data-name="Layer 1">
    <g>
      <path class="cls-1" d="M228.7,23.42h-50.82v50.82c28.07,0,50.82-22.75,50.82-50.82Z"/>
      <polygon class="cls-1" points="177.88 175.89 228.7 175.89 228.7 125.06 228.7 74.24 177.88 74.24 177.88 125.06 177.88 175.89"/>
      <path class="cls-1" d="M609.87,74.24h0v50.82h0c0,28.07,22.75,50.82,50.82,50.82h0V23.42h0c-28.07,0-50.82,22.75-50.82,50.82Z"/>
      <path class="cls-1" d="M711.52,175.89h0c28.07,0,50.82-22.75,50.82-50.82h0s-50.82,0-50.82,0c28.07,0,50.82-22.75,50.82-50.82h-50.82v50.82s0,50.82,0,50.82Z"/>
      <path class="cls-1" d="M711.52,74.24c28.07,0,50.82-22.75,50.82-50.82h0s-50.82,0-50.82,0v50.82Z"/>
      <path class="cls-1" d="M533.64,74.24c-28.07,0-50.82,22.75-50.82,50.82h50.82v50.82h50.82V23.42h-50.82v50.82Z"/>
      <polygon class="cls-1" points="482.82 23.42 431.99 23.42 431.99 74.24 431.99 125.06 431.99 175.89 482.82 175.89 482.82 125.06 482.82 74.24 482.82 23.42"/>
      <path class="cls-1" d="M101.65,23.42h0c-28.07,0-50.82,22.75-50.82,50.82h50.82v101.65h50.82v-101.65c0-28.07-22.75-50.82-50.82-50.82Z"/>
      <path class="cls-1" d="M50.82,23.42C22.75,23.42,0,46.17,0,74.24h50.82C22.75,74.24,0,96.99,0,125.06h0v50.82h50.82V23.42h0Z"/>
      <path class="cls-1" d="M1143.51,23.42h-50.82c-28.07,0-50.82,22.75-50.82,50.82V23.42h-50.82c-28.07,0-50.82,22.75-50.82,50.82V23.42h-50.82c-28.07,0-50.82,22.75-50.82,50.82V23.42h-50.82v50.82h50.82v101.65h50.82v-101.65h50.82v101.65h50.82v-101.65h50.82v50.82c0,28.07,22.75,50.82,50.82,50.82h50.82c28.07,0,50.82-22.75,50.82-50.82v-50.82c0-28.07-22.75-50.82-50.82-50.82ZM1143.51,125.06h-50.82v-50.82h50.82v50.82Z"/>
      <path class="cls-1" d="M304.94,23.42c0,28.07,22.75,50.82,50.82,50.82h50.82c0-28.07-22.75-50.82-50.82-50.82h-50.82c-28.07,0-50.82,22.75-50.82,50.82v50.82c0,28.07,22.75,50.82,50.82,50.82h50.82c28.07,0,50.82-22.75,50.82-50.82h-101.65V23.42Z"/>
      <g>
        <path class="cls-1" d="M1201.19,3.48h-6.86V0h17.46v3.48h-6.86v19.94h-3.75V3.48Z"/>
        <path class="cls-1" d="M1218.62.84v22.58h-3.65V0h6.96l5.05,22.58,5.05-22.58h6.96v23.42h-3.65V.84l-4.82,22.58h-7.09l-4.82-22.58Z"/>
      </g>
    </g>
  </g>
</svg>