<?xml version="1.0" encoding="UTF-8"?>
<svg id="Layer_2" data-name="Layer 2" xmlns="http://www.w3.org/2000/svg" xmlns:xlink="http://www.w3.org/1999/xlink" viewBox="0 0 134.65 92.13">
  <defs>
    <style>
      .cls-1 {
        fill: none;
      }

      .cls-2 {
        fill: transparent;
      }

      .cls-3 {
        fill: #EDE939;
        font-family: N27-Medium, N27;
        font-size: 9px;
        font-weight: 500;
      }

      .cls-4 {
        clip-path: url(#clippath);
      }
    </style>
    <clipPath id="clippath">
      <rect class="cls-1" width="134.65" height="92.13"/>
    </clipPath>
  </defs>
  <g id="Layer_1-2" data-name="Layer 1">
    <g class="cls-4">
      <g>
        <rect class="cls-2" x="-134.65" y="-92.13" width="269.29" height="184.25"/>
        <text class="cls-3" transform="translate(99.3 -1.93) rotate(90)"><tspan x="0" y="0"> </tspan></text>
        <text class="cls-3" transform="translate(99.3 .1) rotate(90)"><tspan x="0" y="0"> </tspan></text>
        <text class="cls-3" transform="translate(99.3 2.12) rotate(90)"><tspan x="0" y="0"> </tspan></text>
        <text class="cls-3" transform="translate(99.3 4.15) rotate(90)"><tspan x="0" y="0"> </tspan></text>
        <text class="cls-3" transform="translate(99.3 6.17) rotate(90)"><tspan x="0" y="0"> </tspan></text>
        <text class="cls-3" transform="translate(99.31 8.2) rotate(90)"><tspan x="0" y="0"> </tspan></text>
        <text class="cls-3" transform="translate(99.3 10.22) rotate(90)"><tspan x="0" y="0"> </tspan></text>
        <text class="cls-3" transform="translate(99.3 12.25) rotate(90)"><tspan x="0" y="0"> </tspan></text>
        <text class="cls-3" transform="translate(99.3 14.27) rotate(90)"><tspan x="0" y="0"> </tspan></text>
        <text class="cls-3" transform="translate(99.3 16.3) rotate(90)"><tspan x="0" y="0"> </tspan></text>
        <text class="cls-3" transform="translate(99.3 18.32) rotate(90)"><tspan x="0" y="0"> </tspan></text>
        <text class="cls-3" transform="translate(99.31 20.35) rotate(90)"><tspan x="0" y="0"> </tspan></text>
        <text class="cls-3" transform="translate(99.3 22.37) rotate(90)"><tspan x="0" y="0"> </tspan></text>
        <text class="cls-3" transform="translate(99.3 24.4) rotate(90)"><tspan x="0" y="0"> </tspan></text>
        <text class="cls-3" transform="translate(99.3 26.42) rotate(90)"><tspan x="0" y="0">I</tspan></text>
        <text class="cls-3" transform="translate(99.3 31.12) rotate(90)"><tspan x="0" y="0">N</tspan></text>
        <text class="cls-3" transform="translate(99.3 37.67) rotate(90)"><tspan x="0" y="0">F</tspan></text>
        <text class="cls-3" transform="translate(99.3 42.98) rotate(90)"><tspan x="0" y="0">O</tspan></text>
        <text class="cls-3" transform="translate(99.3 49.03) rotate(90)"><tspan x="0" y="0">@</tspan></text>
        <text class="cls-3" transform="translate(100.19 57.34) rotate(-180)"><tspan x="0" y="0">N</tspan></text>
        <text class="cls-3" transform="translate(93.64 57.34) rotate(-180)"><tspan x="0" y="0">I</tspan></text>
        <text class="cls-3" transform="translate(88.94 57.34) rotate(-180)"><tspan x="0" y="0">C</tspan></text>
        <text class="cls-3" transform="translate(82.91 57.34) rotate(-180)"><tspan x="0" y="0">H</tspan></text>
        <text class="cls-3" transform="translate(76.47 57.34) rotate(-180)"><tspan x="0" y="0">E</tspan></text>
        <text class="cls-3" transform="translate(71.16 57.34) rotate(-180)"><tspan x="0" y="0">T</tspan></text>
        <text class="cls-3" transform="translate(66.01 57.34) rotate(-180)"><tspan x="0" y="0">T</tspan></text>
        <text class="cls-3" transform="translate(61 57.34) rotate(-180)"><tspan x="0" y="0">O</tspan></text>
        <text class="cls-3" transform="translate(54.95 57.34) rotate(-180)"><tspan x="0" y="0">S</tspan></text>
        <text class="cls-3" transform="translate(49.44 57.34) rotate(-180)"><tspan x="0" y="0">T</tspan></text>
        <text class="cls-3" transform="translate(44.3 57.34) rotate(-180)"><tspan x="0" y="0">U</tspan></text>
        <text class="cls-3" transform="translate(38.05 57.34) rotate(-180)"><tspan x="0" y="0">D</tspan></text>
        <text class="cls-3" transform="translate(32.04 57.34) rotate(-180)"><tspan x="0" y="0">I</tspan></text>
        <text class="cls-3" transform="translate(27.34 57.34) rotate(-180)"><tspan x="0" y="0">O</tspan></text>
        <text class="cls-3" transform="translate(21.56 57.34) rotate(-180)"><tspan x="0" y="0">.</tspan></text>
        <text class="cls-3" transform="translate(19.43 57.34) rotate(-180)"><tspan x="0" y="0">C</tspan></text>
        <text class="cls-3" transform="translate(13.4 57.34) rotate(-180)"><tspan x="0" y="0">O</tspan></text>
        <text class="cls-3" transform="translate(7.35 57.34) rotate(-180)"><tspan x="0" y="0">M</tspan></text>
      </g>
    </g>
  </g>
</svg>