<?xml version="1.0" encoding="UTF-8"?>
<svg id="Layer_2" data-name="Layer 2" xmlns="http://www.w3.org/2000/svg" viewBox="0 0 323.41 352.64">
  <defs>
    <style>
      .cls-1 {
        fill: #651d32;
      }
    </style>
  </defs>
  <g id="Layer_1-2" data-name="Layer 1">
    <g>
      <path class="cls-1" d="M117.67,0h0v29.23h0c-32.49,0-58.84,26.34-58.84,58.84h0s58.84,0,58.84,0v29.42h-58.84c0,32.49,26.34,58.84,58.84,58.84h0v58.65c-16.25,0-29.42,13.17-29.42,29.42h0s29.42,0,29.42,0h0c16.25,0,29.42-13.17,29.42-29.42h0s88.07,0,88.07,0c-32.49,0-58.84,26.34-58.84,58.84h0s.03,0,.03,0h58.81v-58.84h0c0-64.88-52.6-117.48-117.48-117.48h117.48C235.15,52.6,182.55,0,117.67,0Z"/>
      <path class="cls-1" d="M88.25,176.22h-29.42c-16.25,0-29.42,13.17-29.42,29.42h0s29.42,0,29.42,0h29.42v-29.42Z"/>
      <path class="cls-1" d="M293.99,117.3h0c-16.25,0-29.42,13.17-29.42,29.42v58.84h0c16.25,0,29.42-13.17,29.42-29.42h0c0-16.25-13.17-29.42-29.42-29.42h29.42c16.25,0,29.42-13.17,29.42-29.42h-29.42Z"/>
      <path class="cls-1" d="M29.42,88.07h0c-16.25,0-29.42,13.17-29.42,29.42h0s29.42,0,29.42,0h29.42c0-16.25-13.17-29.42-29.42-29.42Z"/>
      <path class="cls-1" d="M146.93,323.22h0v29.42c16.25,0,29.42-13.17,29.42-29.42v-29.42c-16.25,0-29.42,13.17-29.42,29.42Z"/>
    </g>
  </g>
</svg>