<?xml version="1.0" encoding="UTF-8"?>
<svg id="Layer_2" data-name="Layer 2" xmlns="http://www.w3.org/2000/svg" viewBox="0 0 1194.33 152.47">
  <defs>
    <style>
      .cls-1 {
        fill: #FA4616;
      }
    </style>
  </defs>
  <g id="Layer_1-2" data-name="Layer 1">
    <g>
      <path class="cls-1" d="M228.7,0h-50.82v50.82C205.95,50.82,228.7,28.07,228.7,0Z"/>
      <polygon class="cls-1" points="177.88 152.47 228.7 152.47 228.7 101.65 228.7 50.82 177.88 50.82 177.88 101.65 177.88 152.47"/>
      <path class="cls-1" d="M609.87,50.82h0v50.82h0c0,28.07,22.75,50.82,50.82,50.82h0V0h0c-28.07,0-50.82,22.75-50.82,50.82Z"/>
      <path class="cls-1" d="M711.52,152.47h0c28.07,0,50.82-22.75,50.82-50.82h0s-50.82,0-50.82,0c28.07,0,50.82-22.75,50.82-50.82h-50.82v50.82s0,50.82,0,50.82Z"/>
      <path class="cls-1" d="M711.52,50.82c28.07,0,50.82-22.75,50.82-50.82h0s-50.82,0-50.82,0v50.82Z"/>
      <path class="cls-1" d="M533.64,50.82c-28.07,0-50.82,22.75-50.82,50.82h50.82v50.82h50.82V0h-50.82v50.82Z"/>
      <polygon class="cls-1" points="482.82 0 431.99 0 431.99 50.82 431.99 101.65 431.99 152.47 482.82 152.47 482.82 101.65 482.82 50.82 482.82 0"/>
      <path class="cls-1" d="M101.65,0h0C73.58,0,50.82,22.75,50.82,50.82h50.82v101.65h50.82V50.82C152.47,22.75,129.71,0,101.65,0Z"/>
      <path class="cls-1" d="M50.82,0C22.75,0,0,22.75,0,50.82h50.82C22.75,50.82,0,73.58,0,101.65h0v50.82h50.82V0h0Z"/>
      <path class="cls-1" d="M1143.51,0h-50.82c-28.07,0-50.82,22.75-50.82,50.82V0h-50.82c-28.07,0-50.82,22.75-50.82,50.82V0h-50.82c-28.07,0-50.82,22.75-50.82,50.82V0h-50.82v50.82h50.82v101.65h50.82V50.82h50.82v101.65h50.82V50.82h50.82v50.82c0,28.07,22.75,50.82,50.82,50.82h50.82c28.07,0,50.82-22.75,50.82-50.82v-50.82C1194.33,22.75,1171.58,0,1143.51,0ZM1143.51,101.65h-50.82v-50.82h50.82v50.82Z"/>
      <path class="cls-1" d="M304.94,0c0,28.07,22.75,50.82,50.82,50.82h50.82c0-28.07-22.75-50.82-50.82-50.82h-50.82c-28.07,0-50.82,22.75-50.82,50.82v50.82c0,28.07,22.75,50.82,50.82,50.82h50.82c28.07,0,50.82-22.75,50.82-50.82h-101.65V0Z"/>
    </g>
  </g>
</svg>